<svg width="46" height="24" viewBox="0 0 46 24" fill="none" xmlns="http://www.w3.org/2000/svg">
<path d="M34.7548 0.754395C32.1126 0.754395 28.9504 2.30159 25.0884 5.48449C24.328 6.11115 23.6208 6.73502 23.0005 7.30562C22.3794 6.73502 21.6722 6.11115 20.9118 5.48449C17.0497 2.3015 13.8885 0.754395 11.2454 0.754395C5.04482 0.754395 0 5.79921 0 12.0005C0 18.2009 5.04482 23.2457 11.2452 23.2457C13.8883 23.2457 17.0496 21.6985 20.9116 18.5156C21.672 17.8889 22.3792 17.2651 23.0004 16.6945C23.6206 17.2651 24.3278 17.8889 25.0882 18.5156C28.9503 21.6986 32.1124 23.2457 34.7546 23.2457C40.955 23.2457 45.9998 18.2009 45.9998 12.0005C46 5.79921 40.9552 0.754395 34.7548 0.754395ZM16.7322 13.4437C12.8575 16.6356 11.3094 16.6727 11.2453 16.6727C8.66911 16.6727 6.57306 14.5767 6.57306 12.0005C6.57306 9.42342 8.66911 7.32736 11.2453 7.32736C11.3095 7.32736 12.844 7.36357 16.6816 10.5157C17.2965 11.0203 17.8761 11.5285 18.3942 12.0005C17.8915 12.4581 17.3299 12.9509 16.7322 13.4437ZM34.7548 16.6727C34.6906 16.6727 33.1426 16.6356 29.2679 13.4437C28.6701 12.9509 28.1086 12.458 27.6067 12.0005C28.124 11.5285 28.7036 11.0203 29.3184 10.5157C33.156 7.36357 34.6915 7.32736 34.7548 7.32736C37.331 7.32736 39.427 9.42342 39.427 12.0005C39.427 14.5767 37.331 16.6727 34.7548 16.6727Z" fill="#7096FF"/>
<path d="M34.755 0.754395C32.1128 0.754395 28.9506 2.30159 25.0886 5.48449C24.3282 6.11115 23.621 6.73502 23.0007 7.30562V16.6945C23.621 17.2651 24.3282 17.8889 25.0886 18.5156C28.9506 21.6986 32.1128 23.2457 34.755 23.2457C40.9554 23.2457 46.0002 18.2009 46.0002 12.0005C46.0002 5.79921 40.9554 0.754395 34.755 0.754395ZM34.755 16.6727C34.6907 16.6727 33.1427 16.6356 29.268 13.4437C28.6703 12.9509 28.1088 12.458 27.6069 12.0005C28.1242 11.5285 28.7037 11.0203 29.3186 10.5157C33.1562 7.36357 34.6916 7.32736 34.755 7.32736C37.3312 7.32736 39.4272 9.42342 39.4272 12.0005C39.4272 14.5767 37.3312 16.6727 34.755 16.6727Z" fill="#3264EF"/>
</svg>
