<svg width="40" height="40" viewBox="0 0 40 40" fill="none" xmlns="http://www.w3.org/2000/svg">
<circle cx="20.0007" cy="20" r="20" fill="black"/>
<path d="M17.2374 28.9999C14.2608 28.9828 11.7986 22.9065 11.7986 19.812C11.7986 14.7572 15.5906 13.6506 17.052 13.6506C17.7106 13.6506 18.4138 13.9092 19.0341 14.1381C19.4678 14.2977 19.9164 14.4625 20.1659 14.4625C20.3153 14.4625 20.6672 14.3223 20.9779 14.1993C21.6405 13.9355 22.465 13.6077 23.4252 13.6077C23.4269 13.6077 23.4292 13.6077 23.4309 13.6077C24.1478 13.6077 26.3217 13.765 27.6286 15.7277L27.9347 16.1877L27.4941 16.5202C26.8647 16.9951 25.7163 17.8614 25.7163 19.5775C25.7163 21.6099 27.0169 22.3916 27.6417 22.7675C27.9176 22.9334 28.2031 23.1045 28.2031 23.4788C28.2031 23.7231 26.253 28.9696 23.4212 28.9696C22.7282 28.9696 22.2384 28.7613 21.8064 28.5777C21.3692 28.3917 20.9921 28.2315 20.369 28.2315C20.0532 28.2315 19.6537 28.3808 19.2309 28.5394C18.653 28.755 17.999 28.9999 17.2568 28.9999H17.2374Z" fill="white"/>
<path d="M23.7278 9C23.8016 11.6592 21.8998 13.5041 20.0003 13.3884C19.6873 11.2662 21.8996 9 23.7278 9Z" fill="white"/>
</svg>
