<svg width="150" height="146" viewBox="0 0 150 146" fill="none" xmlns="http://www.w3.org/2000/svg">
<path d="M74.7671 4.49466C77.5239 2.25207 81.4761 2.25207 84.2329 4.49467L91.9146 10.7436C93.7935 12.2721 96.2354 12.9264 98.6269 12.5421L108.404 10.9713C111.913 10.4075 115.335 12.3836 116.601 15.7041L120.13 24.9567C120.993 27.2199 122.78 29.0075 125.043 29.8705L134.296 33.3985C137.616 34.6647 139.592 38.0874 139.029 41.5961L137.458 51.3731C137.074 53.7646 137.728 56.2065 139.256 58.0854L145.505 65.7671C147.748 68.5239 147.748 72.4761 145.505 75.2329L139.256 82.9146C137.728 84.7935 137.074 87.2354 137.458 89.6269L139.029 99.4039C139.592 102.913 137.616 106.335 134.296 107.601L125.043 111.13C122.78 111.993 120.993 113.78 120.13 116.043L116.601 125.296C115.335 128.616 111.913 130.592 108.404 130.029L98.6269 128.458C96.2354 128.074 93.7935 128.728 91.9146 130.256L84.2329 136.505C81.4761 138.748 77.5239 138.748 74.7671 136.505L67.0854 130.256C65.2065 128.728 62.7646 128.074 60.3731 128.458L50.5961 130.029C47.0874 130.592 43.6647 128.616 42.3985 125.296L38.8705 116.043C38.0075 113.78 36.2199 111.993 33.9567 111.13L24.7041 107.601C21.3836 106.335 19.4075 102.913 19.9713 99.4039L21.5421 89.6269C21.9264 87.2354 21.2721 84.7935 19.7436 82.9146L13.4947 75.2329C11.2521 72.4761 11.2521 68.5239 13.4947 65.7671L19.7436 58.0854C21.2721 56.2065 21.9264 53.7646 21.5421 51.3731L19.9713 41.5961C19.4075 38.0874 21.3836 34.6647 24.7041 33.3985L33.9567 29.8705C36.2199 29.0075 38.0075 27.2199 38.8705 24.9567L42.3985 15.7041C43.6647 12.3836 47.0874 10.4075 50.5961 10.9713L60.3731 12.5421C62.7646 12.9264 65.2065 12.2721 67.0854 10.7436L74.7671 4.49466Z" stroke="#3264EF"/>
<path d="M65.4516 9.10679C68.3922 6.71469 72.6078 6.7147 75.5484 9.10679L83.2301 15.3557C84.9985 16.7943 87.2968 17.4101 89.5476 17.0485L99.3246 15.4776C103.067 14.8763 106.718 16.9841 108.069 20.526L111.597 29.7785C112.409 31.9086 114.091 33.5911 116.221 34.4033L125.474 37.9313C129.016 39.2819 131.124 42.9328 130.522 46.6755L128.952 56.4524C128.59 58.7033 129.206 61.0015 130.644 62.7699L136.893 70.4516C139.285 73.3922 139.285 77.6078 136.893 80.5484L130.644 88.2301C129.206 89.9985 128.59 92.2968 128.952 94.5476L130.522 104.325C131.124 108.067 129.016 111.718 125.474 113.069L116.221 116.597C114.091 117.409 112.409 119.091 111.597 121.221L108.069 130.474C106.718 134.016 103.067 136.124 99.3245 135.522L89.5476 133.952C87.2967 133.59 84.9985 134.206 83.2301 135.644L75.5484 141.893C72.6078 144.285 68.3922 144.285 65.4516 141.893L57.7699 135.644C56.0015 134.206 53.7033 133.59 51.4524 133.952L41.6754 135.522C37.9328 136.124 34.2819 134.016 32.9313 130.474L29.4033 121.221C28.591 119.091 26.9086 117.409 24.7785 116.597L15.526 113.069C11.9841 111.718 9.87626 108.067 10.4776 104.325L12.0485 94.5476C12.4101 92.2967 11.7943 89.9985 10.3557 88.2301L4.10679 80.5484C1.71469 77.6078 1.7147 73.3922 4.10679 70.4516L10.3557 62.7699C11.7943 61.0015 12.4101 58.7033 12.0485 56.4524L10.4776 46.6754C9.87626 42.9328 11.9841 39.2819 15.526 37.9313L24.7785 34.4033C26.9086 33.591 28.5911 31.9086 29.4033 29.7785L32.9313 20.526C34.2819 16.9841 37.9328 14.8763 41.6754 15.4776L51.4524 17.0485C53.7033 17.4101 56.0015 16.7943 57.7699 15.3557L65.4516 9.10679Z" fill="#3264EF"/>
<path d="M47.2401 69H49.5122L45.3161 63.4616L49.3382 58.8182H47.0661L43.4468 63.0043H42.9845V58.8182H41.14V69H42.9845V64.5504H43.8893L47.2401 69ZM52.0725 69L52.9127 66.4893H56.7409L57.586 69H59.5548L55.9653 58.8182H53.6883L50.1038 69H52.0725ZM53.4099 65.0078L54.787 60.9062H54.8666L56.2437 65.0078H53.4099ZM66.996 69H69.268L65.072 63.4616L69.094 58.8182H66.822L63.2027 63.0043H62.7403V58.8182H60.8959V69H62.7403V64.5504H63.6452L66.996 69ZM73.7449 65.7138C73.914 67.7124 75.2911 69.1392 77.7719 69.1392C80.3224 69.1392 81.9083 67.2997 81.9083 64.3963V63.4517C81.9083 60.5433 80.2826 58.679 77.7272 58.679C75.2165 58.679 73.9339 60.1854 73.735 62.174H75.5894C75.7137 60.946 76.2606 60.2152 77.7272 60.2152C79.2236 60.2152 80.0191 61.3438 80.0688 63.2678H76.5787V64.7841H80.0589C79.9694 66.4943 79.2883 67.6328 77.7719 67.6328C76.3699 67.6328 75.7187 66.9716 75.5993 65.7138H73.7449ZM82.7746 60.3643H85.9216V69H87.7512V60.3643H90.8982V58.8182H82.7746V60.3643ZM101.125 63.9091C101.125 60.6179 99.1162 58.679 96.4465 58.679C93.7718 58.679 91.7682 60.6179 91.7682 63.9091C91.7682 67.1953 93.7718 69.1392 96.4465 69.1392C99.1162 69.1392 101.125 67.2003 101.125 63.9091ZM99.2703 63.9091C99.2703 66.2259 98.107 67.4837 96.4465 67.4837C94.7909 67.4837 93.6226 66.2259 93.6226 63.9091C93.6226 61.5923 94.7909 60.3345 96.4465 60.3345C98.107 60.3345 99.2703 61.5923 99.2703 63.9091ZM31.4672 90H33.3116V86.5597H35.2605C37.612 86.5597 38.8748 85.1477 38.8748 83.1889C38.8748 81.245 37.627 79.8182 35.2853 79.8182H31.4672V90ZM33.3116 85.0433V81.3594H35.002C36.3841 81.3594 36.9956 82.1051 36.9956 83.1889C36.9956 84.2727 36.3841 85.0433 35.0119 85.0433H33.3116ZM40.6497 90L41.4899 87.4893H45.318L46.1632 90H48.1319L44.5424 79.8182H42.2654L38.6809 90H40.6497ZM41.987 86.0078L43.3642 81.9062H43.4437L44.8208 86.0078H41.987ZM49.473 90H53.2812C55.6179 90 57.0199 88.7024 57.0199 86.8281C57.0199 84.9588 55.6179 83.7507 53.2812 83.7507H51.3175V81.3643H56.0206V79.8182H49.473V90ZM51.3175 88.4886V85.2521H53.2812C54.5142 85.2521 55.1953 85.9482 55.1953 86.8082C55.1953 87.7031 54.5142 88.4886 53.2812 88.4886H51.3175ZM67.7312 84.9091C67.7312 81.6179 65.7227 79.679 63.0529 79.679C60.3782 79.679 58.3746 81.6179 58.3746 84.9091C58.3746 88.1953 60.3782 90.1392 63.0529 90.1392C65.7227 90.1392 67.7312 88.2003 67.7312 84.9091ZM65.8768 84.9091C65.8768 87.2259 64.7134 88.4837 63.0529 88.4837C61.3974 88.4837 60.229 87.2259 60.229 84.9091C60.229 82.5923 61.3974 81.3345 63.0529 81.3345C64.7134 81.3345 65.8768 82.5923 65.8768 84.9091ZM68.59 81.3643H71.737V90H73.5666V81.3643H76.7136V79.8182H68.59V81.3643ZM78.3567 90L79.1969 87.4893H83.025L83.8702 90H85.839L82.2495 79.8182H79.9725L76.388 90H78.3567ZM79.6941 86.0078L81.0712 81.9062H81.1507L82.5279 86.0078H79.6941ZM87.18 90H93.842V88.4538H89.0245V85.6747H93.4592V84.1286H89.0245V81.3643H93.8022V79.8182H87.18V90ZM95.2365 81.3643H98.3835V90H100.213V81.3643H103.36V79.8182H95.2365V81.3643ZM106.567 87.0071H108.222V86.8778C108.232 85.8239 108.575 85.3416 109.386 84.8445C110.3 84.2976 110.872 83.5518 110.872 82.4134C110.872 80.733 109.565 79.679 107.665 79.679C105.925 79.679 104.513 80.6435 104.464 82.5327H106.234C106.278 81.598 106.955 81.1506 107.656 81.1506C108.416 81.1506 109.028 81.6577 109.028 82.4382C109.028 83.1342 108.565 83.6115 107.964 83.9893C107.084 84.5362 106.577 85.0881 106.567 86.8778V87.0071ZM107.437 90.1094C108.023 90.1094 108.526 89.6222 108.531 89.0156C108.526 88.419 108.023 87.9318 107.437 87.9318C106.83 87.9318 106.338 88.419 106.343 89.0156C106.338 89.6222 106.83 90.1094 107.437 90.1094Z" fill="white"/>
</svg>
