<svg width="46" height="46" viewBox="0 0 46 46" fill="none" xmlns="http://www.w3.org/2000/svg">
<path d="M10.0614 19.4062C8.80834 18.7864 7.59216 18.0945 6.41899 17.3342C5.16217 16.7212 4.68393 14.898 5.29684 13.6416C5.44251 13.3427 5.64568 13.0753 5.89472 12.8549C6.14375 12.6345 6.43379 12.4654 6.74824 12.3571C7.06269 12.2488 7.39539 12.2036 7.72733 12.224C8.05927 12.2444 8.38394 12.33 8.68278 12.4759L9.24467 12.7868L10.9272 12.5389L11.0477 13.4573L12.036 14.2161C12.1109 14.2736 12.1737 14.3452 12.2209 14.427C12.2681 14.5088 12.2987 14.599 12.3109 14.6926C12.3232 14.7862 12.317 14.8813 12.2925 14.9725C12.268 15.0636 12.2259 15.1491 12.1684 15.224L11.4095 16.2122L15.5652 19.4032L13.5706 22.0005L10.0614 19.4062Z" fill="#FEB784"/>
<path d="M43.8438 43.8438H39.5312V42.4062L40.25 41.6875L35.7614 39.047L28.0312 34.5L24.4375 32.3438H10.0625L9.78758 36.7479L9.34375 43.8438H5.14805C4.94978 43.8436 4.75805 43.7729 4.60711 43.6443C4.45617 43.5158 4.35586 43.3377 4.32411 43.142C4.29235 42.9463 4.33123 42.7457 4.43378 42.576C4.53633 42.4063 4.69588 42.2787 4.88391 42.2158L5.89734 41.878C6.06369 41.8225 6.20838 41.7162 6.31093 41.574C6.41348 41.4318 6.46869 41.2609 6.46875 41.0855V30.1875C6.46875 29.6156 6.69593 29.0672 7.1003 28.6628C7.50468 28.2584 8.05313 28.0312 8.625 28.0312H17.9688V24.4375H13.6562L10.7812 20.8438L11.2565 20.2894L13.3831 17.7262L14.375 16.5312L13.6562 15.0938L5.75 7.1875L2.15625 5.03125V3.59375L4.3125 2.15625L11.5 8.625L13.6215 10.4813C16.0176 12.5779 17.9824 15.121 19.4062 17.9688L20.8438 20.125L25.1562 24.4375L27.3125 27.3125L34.5 33.0625L37.8979 36.1989L42.2594 40.2249C42.7589 40.6861 43.1576 41.2457 43.4303 41.8685C43.703 42.4913 43.8437 43.1639 43.8438 43.8438Z" fill="#FEB784"/>
<path d="M37.8979 36.1989L35.9375 38.8125L35.7614 39.047L28.0312 34.5L24.4375 32.3437H10.0625L9.78758 36.7479L9.34375 36.6562H6.46875V30.1875C6.46889 29.6157 6.69611 29.0673 7.10046 28.663C7.5048 28.2586 8.05317 28.0314 8.625 28.0312H17.9687V26.5937L25.1562 24.4375L27.3125 27.3125L34.5 33.0625L37.8979 36.1989Z" fill="#7096FF"/>
<path d="M10.7812 20.8438L8.93263 23.3086C8.73372 23.5738 8.6326 23.8996 8.64638 24.2309L9.34375 40.9688L7.1875 43.8438H9.34375L10.7812 43.125L11.3511 43.6949C11.4464 43.7902 11.5757 43.8437 11.7105 43.8438C11.7772 43.8438 11.8433 43.8306 11.905 43.8051C11.9667 43.7795 12.0227 43.7421 12.0699 43.6949C12.1171 43.6477 12.1545 43.5917 12.1801 43.53C12.2056 43.4683 12.2188 43.4022 12.2188 43.3355V25.1562L13.6562 24.4375L10.7812 20.8438Z" fill="#FEC093"/>
<path d="M2.75524 19.526V24.3177L2.15625 25.5156L3.70228 25.0003C4.29858 24.8015 4.81722 24.4202 5.18474 23.9102C5.55225 23.4003 5.75001 22.7877 5.75 22.1592V16.5312C4.95574 16.5312 4.19401 16.8468 3.63238 17.4084C3.07076 17.97 2.75524 18.7318 2.75524 19.526Z" fill="white"/>
<path d="M8.72871 17.1646L7.99531 17.4172C7.79502 17.4863 7.57666 17.4815 7.37959 17.4037C7.18252 17.326 7.01971 17.1804 6.92051 16.9932C6.82132 16.806 6.79226 16.5895 6.83858 16.3828C6.88491 16.1761 7.00356 15.9927 7.17315 15.8657L7.34682 15.7356L5.87823 12.8696C4.924 13.6167 3.77077 15.1933 4.59347 17.121C5.75075 19.835 10.0623 19.4063 10.0623 19.4063L8.72871 17.1646Z" fill="white"/>
<path d="M17.25 24.4375L20.8438 20.125L19.4062 17.9688C19.4062 17.9688 16.5312 18.6875 14.375 16.5312C14.375 16.5312 15.8125 19.4063 14.375 20.8438C12.9375 22.2813 10.7812 20.8438 10.7812 20.8438L12.3224 23.4123C12.7193 24.0739 13.3398 24.5716 14.0717 24.8156C14.7351 25.0367 15.4523 25.0367 16.1156 24.8156L17.25 24.4375Z" fill="#3264EF"/>
</svg>
