<svg width="40" height="40" viewBox="0 0 40 40" fill="none" xmlns="http://www.w3.org/2000/svg">
<circle cx="20" cy="20" r="20" fill="#3264EF"/>
<path fill-rule="evenodd" clip-rule="evenodd" d="M17.4951 9.25391C17.4951 7.73508 18.7309 6.5 20.249 6.5C21.7672 6.5 23.0029 7.73508 23.0029 9.25391C23.0029 10.7727 21.7672 12.0078 20.249 12.0078C18.7309 12.0078 17.4951 10.7727 17.4951 9.25391ZM9.1875 23.1152C9.1875 21.5964 10.4233 20.3613 11.9414 20.3613C13.4595 20.3613 14.6953 21.5964 14.6953 23.1152C14.6953 24.6341 13.4595 25.8691 11.9414 25.8691C10.4233 25.8691 9.1875 24.6341 9.1875 23.1152ZM25.8027 23.1152C25.8027 21.5964 27.0385 20.3613 28.5566 20.3613C30.0748 20.3613 31.3105 21.5964 31.3105 23.1152C31.3105 24.6341 30.0748 25.8691 28.5566 25.8691C27.0385 25.8691 25.8027 24.6341 25.8027 23.1152ZM16.8076 15.4502C16.8076 13.5522 18.3513 12.0078 20.25 12.0078C22.1487 12.0078 23.6924 13.5522 23.6924 15.4502C23.6924 15.8307 23.3844 16.1387 23.0039 16.1387H17.4961C17.1156 16.1387 16.8076 15.8307 16.8076 15.4502ZM8.5 29.3115C8.5 27.4135 10.0437 25.8691 11.9424 25.8691C13.8411 25.8691 15.3848 27.4135 15.3848 29.3115C15.3848 29.6921 15.0768 30 14.6963 30H9.18848C8.80793 30 8.5 29.6921 8.5 29.3115ZM25.1152 29.3115C25.1152 27.4135 26.6589 25.8691 28.5576 25.8691C30.4563 25.8691 32 27.4135 32 29.3115C32 29.6921 31.6921 30 31.3115 30H25.8037C25.4232 30 25.1152 29.6921 25.1152 29.3115ZM20.9385 20.5783L23.3118 21.765C23.652 21.9351 23.7892 22.3486 23.6198 22.6888C23.4519 23.0236 23.0439 23.1683 22.696 22.9967L20.25 21.7737L17.804 22.9967C17.4625 23.1655 17.051 23.0297 16.8802 22.6888C16.7108 22.3486 16.848 21.9351 17.1882 21.765L19.5615 20.5783V18.25C19.5615 17.8695 19.8695 17.5615 20.25 17.5615C20.6305 17.5615 20.9385 17.8695 20.9385 18.25V20.5783Z" fill="white"/>
</svg>
