<svg width="40" height="40" viewBox="0 0 40 40" fill="none" xmlns="http://www.w3.org/2000/svg">
<path d="M20.0007 40C31.0464 40 40.0007 31.0457 40.0007 20C40.0007 8.95431 31.0464 0 20.0007 0C8.95504 0 0.000732422 8.95431 0.000732422 20C0.000732422 31.0457 8.95504 40 20.0007 40Z" fill="white"/>
<g clip-path="url(#clip0)">
<path d="M30.4662 20.233C30.4662 19.3294 30.3931 18.6701 30.235 17.9863H19.9546V22.0645H25.989C25.8674 23.0779 25.2104 24.6042 23.7504 25.6298L23.7299 25.7663L26.9804 28.2935L27.2056 28.3161C29.2738 26.3991 30.4662 23.5785 30.4662 20.233Z" fill="#4285F4"/>
<path d="M19.955 30.9783C22.9113 30.9783 25.3932 30.0014 27.206 28.3165L23.7508 25.6302C22.8262 26.2773 21.5852 26.7291 19.955 26.7291C17.0594 26.7291 14.6019 24.8122 13.7258 22.1626L13.5974 22.1735L10.2175 24.7987L10.1733 24.922C11.9739 28.5118 15.6724 30.9783 19.955 30.9783Z" fill="#34A853"/>
<path d="M13.7219 22.1622C13.4907 21.4785 13.357 20.7458 13.357 19.9888C13.357 19.2318 13.4907 18.4992 13.7097 17.8154L13.7036 17.6698L10.2814 15.0024L10.1694 15.0559C9.42729 16.5455 9.00146 18.2184 9.00146 19.9888C9.00146 21.7593 9.42729 23.432 10.1694 24.9217L13.7219 22.1622Z" fill="#FBBC05"/>
<path d="M19.955 13.2491C22.011 13.2491 23.3979 14.1404 24.1888 14.8853L27.279 11.8572C25.3811 10.0867 22.9113 9 19.955 9C15.6724 9 11.9739 11.4664 10.1733 15.0562L13.7137 17.8157C14.6019 15.1661 17.0594 13.2491 19.955 13.2491Z" fill="#EB4335"/>
</g>
<defs>
<clipPath id="clip0">
<rect width="21.4736" height="22.0539" fill="white" transform="translate(9.00146 9)"/>
</clipPath>
</defs>
</svg>
