<svg width="109" height="36" viewBox="0 0 109 36" fill="none" xmlns="http://www.w3.org/2000/svg">
<path d="M49.5835 14.4875V17.15H53.7007V18.525H49.5835V21.875H48V13.125H54.2245V14.4875H49.5835Z" fill="white"/>
<path d="M55.9995 13.125H57.5831V21.875H55.9995V13.125Z" fill="white"/>
<path d="M61.8627 14.5H59.0367V13.125H66.2723V14.5H63.4463V21.875H61.8627V14.5Z" fill="white"/>
<path d="M71.2124 13.125C71.9514 13.125 72.593 13.25 73.137 13.5C73.6893 13.75 74.1115 14.1083 74.4039 14.575C74.6962 15.0417 74.8424 15.5958 74.8424 16.2375C74.8424 16.8708 74.6962 17.425 74.4039 17.9C74.1115 18.3667 73.6893 18.725 73.137 18.975C72.593 19.225 71.9514 19.35 71.2124 19.35H69.2878V21.875H67.7043V13.125H71.2124ZM71.1394 17.975C71.8296 17.975 72.3534 17.825 72.7107 17.525C73.068 17.225 73.2467 16.7958 73.2467 16.2375C73.2467 15.6792 73.068 15.25 72.7107 14.95C72.3534 14.65 71.8296 14.5 71.1394 14.5H69.2878V17.975H71.1394Z" fill="white"/>
<path d="M76.6674 13.125H78.2509V20.5H82.7092V21.875H76.6674V13.125Z" fill="white"/>
<path d="M89.7927 19.85H85.5293L84.6888 21.875H83.0565L86.8936 13.125H88.4527L92.302 21.875H90.6453L89.7927 19.85ZM89.2689 18.575L87.661 14.75L86.0653 18.575H89.2689Z" fill="white"/>
<path d="M97.4577 22C96.5969 22 95.8173 21.8083 95.1189 21.425C94.4287 21.0333 93.8846 20.4958 93.4867 19.8125C93.0969 19.1292 92.902 18.3583 92.902 17.5C92.902 16.6417 93.1009 15.8708 93.4988 15.1875C93.8967 14.5042 94.4408 13.9708 95.1311 13.5875C95.8295 13.1958 96.6091 13 97.4699 13C98.1682 13 98.8057 13.125 99.3823 13.375C99.9589 13.625 100.446 13.9875 100.844 14.4625L99.8208 15.45C99.2036 14.7667 98.4443 14.425 97.5429 14.425C96.9583 14.425 96.4345 14.5583 95.9716 14.825C95.5087 15.0833 95.1473 15.4458 94.8875 15.9125C94.6276 16.3792 94.4977 16.9083 94.4977 17.5C94.4977 18.0917 94.6276 18.6208 94.8875 19.0875C95.1473 19.5542 95.5087 19.9208 95.9716 20.1875C96.4345 20.4458 96.9583 20.575 97.5429 20.575C98.4443 20.575 99.2036 20.2292 99.8208 19.5375L100.844 20.5375C100.446 21.0125 99.9548 21.375 99.3701 21.625C98.7935 21.875 98.1561 22 97.4577 22Z" fill="white"/>
<path d="M109 20.5125V21.875H102.605V13.125H108.829V14.4875H104.188V16.7625H108.306V18.1H104.188V20.5125H109Z" fill="white"/>
<path d="M36 33.3324C36 34.8048 34.8048 36 33.3324 36H2.6676C1.1952 36 0 34.8048 0 33.3324V2.6676C0 1.1952 1.1952 0 2.6676 0H33.3324C34.8048 0 36 1.1952 36 2.6676V33.3324Z" fill="url(#paint0_linear)"/>
<path fill-rule="evenodd" clip-rule="evenodd" d="M18.6913 18.5771L18.6481 25.0464C18.6445 25.6404 18.3025 26.184 17.7661 26.4468L14.7385 28.2L14.7925 20.9999C14.7961 20.4059 18.6913 18.5771 18.6913 18.5771Z" fill="url(#paint1_linear)"/>
<path fill-rule="evenodd" clip-rule="evenodd" d="M22.6619 17.2848C22.7015 17.8824 22.4027 18.4512 21.8915 18.75L11.8655 24.6L11.8691 21.1008C11.8295 20.5032 12.1283 19.9344 12.6395 19.6356L22.6655 13.8L22.6619 17.2848Z" fill="url(#paint2_linear)"/>
<path fill-rule="evenodd" clip-rule="evenodd" d="M24.822 10.0849C24.8616 10.6825 24.5628 11.2513 24.0516 11.5501L14.0256 17.4001L14.0292 13.9009C13.9896 13.3033 14.2884 12.7345 14.7996 12.4357L24.8256 6.6001L24.822 10.0849Z" fill="url(#paint3_linear)"/>
<defs>
<linearGradient id="paint0_linear" x1="34.9145" y1="11.8436" x2="1.08549" y2="24.1564" gradientUnits="userSpaceOnUse">
<stop stop-color="#303030"/>
<stop offset="1" stop-color="#232323"/>
</linearGradient>
<linearGradient id="paint1_linear" x1="18.3085" y1="26.1441" x2="15.0672" y2="20.5301" gradientUnits="userSpaceOnUse">
<stop stop-color="#5496FF"/>
<stop offset="1" stop-color="#3264EF"/>
</linearGradient>
<linearGradient id="paint2_linear" x1="11.8659" y1="19.2" x2="22.6659" y2="19.2" gradientUnits="userSpaceOnUse">
<stop stop-color="#5496FF"/>
<stop offset="1" stop-color="#3264EE"/>
</linearGradient>
<linearGradient id="paint3_linear" x1="14.0261" y1="12.0001" x2="24.8261" y2="12.0001" gradientUnits="userSpaceOnUse">
<stop stop-color="#5496FF"/>
<stop offset="1" stop-color="#3264EF"/>
</linearGradient>
</defs>
</svg>
