<svg width="86" height="23" viewBox="0 0 86 23" fill="none" xmlns="http://www.w3.org/2000/svg">
<path d="M26.5437 8.4875V11.15H30.6609V12.525H26.5437V15.875H24.9602V7.125H31.1847V8.4875H26.5437Z" fill="#737B7D"/>
<path d="M32.9597 7.125H34.5433V15.875H32.9597V7.125Z" fill="#737B7D"/>
<path d="M38.8229 8.5H35.9969V7.125H43.2325V8.5H40.4065V15.875H38.8229V8.5Z" fill="#737B7D"/>
<path d="M48.1726 7.125C48.9116 7.125 49.5532 7.25 50.0973 7.5C50.6495 7.75 51.0717 8.10833 51.3641 8.575C51.6564 9.04167 51.8026 9.59583 51.8026 10.2375C51.8026 10.8708 51.6564 11.425 51.3641 11.9C51.0717 12.3667 50.6495 12.725 50.0973 12.975C49.5532 13.225 48.9116 13.35 48.1726 13.35H46.248V15.875H44.6645V7.125H48.1726ZM48.0996 11.975C48.7898 11.975 49.3136 11.825 49.6709 11.525C50.0282 11.225 50.2069 10.7958 50.2069 10.2375C50.2069 9.67917 50.0282 9.25 49.6709 8.95C49.3136 8.65 48.7898 8.5 48.0996 8.5H46.248V11.975H48.0996Z" fill="#737B7D"/>
<path d="M53.6276 7.125H55.2111V14.5H59.6694V15.875H53.6276V7.125Z" fill="#737B7D"/>
<path d="M66.7529 13.85H62.4895L61.649 15.875H60.0167L63.8538 7.125H65.4129L69.2622 15.875H67.6055L66.7529 13.85ZM66.2291 12.575L64.6212 8.75L63.0255 12.575H66.2291Z" fill="#737B7D"/>
<path d="M74.4179 16C73.5571 16 72.7775 15.8083 72.0791 15.425C71.3889 15.0333 70.8448 14.4958 70.4469 13.8125C70.0571 13.1292 69.8622 12.3583 69.8622 11.5C69.8622 10.6417 70.0611 9.87083 70.459 9.1875C70.857 8.50417 71.401 7.97083 72.0913 7.5875C72.7897 7.19583 73.5693 7 74.4301 7C75.1284 7 75.7659 7.125 76.3425 7.375C76.9191 7.625 77.4063 7.9875 77.8042 8.4625L76.781 9.45C76.1638 8.76667 75.4046 8.425 74.5032 8.425C73.9185 8.425 73.3947 8.55833 72.9318 8.825C72.4689 9.08333 72.1075 9.44583 71.8477 9.9125C71.5878 10.3792 71.4579 10.9083 71.4579 11.5C71.4579 12.0917 71.5878 12.6208 71.8477 13.0875C72.1075 13.5542 72.4689 13.9208 72.9318 14.1875C73.3947 14.4458 73.9185 14.575 74.5032 14.575C75.4046 14.575 76.1638 14.2292 76.781 13.5375L77.8042 14.5375C77.4063 15.0125 76.915 15.375 76.3303 15.625C75.7537 15.875 75.1163 16 74.4179 16Z" fill="#737B7D"/>
<path d="M85.9602 14.5125V15.875H79.5651V7.125H85.7897V8.4875H81.1487V10.7625H85.2659V12.1H81.1487V14.5125H85.9602Z" fill="#737B7D"/>
<path fill-rule="evenodd" clip-rule="evenodd" d="M6.82585 12.5771L6.78265 19.0464C6.77905 19.6404 6.43705 20.184 5.90065 20.4468L2.87305 22.2L2.92705 14.9999C2.93065 14.4059 6.82585 12.5771 6.82585 12.5771Z" fill="url(#paint0_linear)"/>
<path fill-rule="evenodd" clip-rule="evenodd" d="M10.7964 11.2846C10.836 11.8822 10.5372 12.451 10.026 12.7498L0 18.5998L0.00360022 15.1006C-0.0359998 14.503 0.2628 13.9342 0.774 13.6354L10.8 7.7998L10.7964 11.2846Z" fill="url(#paint1_linear)"/>
<path fill-rule="evenodd" clip-rule="evenodd" d="M12.9566 4.0849C12.9962 4.6825 12.6974 5.2513 12.1862 5.5501L2.16016 11.4001L2.16376 7.9009C2.12416 7.3033 2.42296 6.7345 2.93416 6.4357L12.9602 0.600098L12.9566 4.0849Z" fill="url(#paint2_linear)"/>
<defs>
<linearGradient id="paint0_linear" x1="6.44301" y1="20.1441" x2="3.20169" y2="14.5301" gradientUnits="userSpaceOnUse">
<stop stop-color="#5496FF"/>
<stop offset="1" stop-color="#3264EF"/>
</linearGradient>
<linearGradient id="paint1_linear" x1="0.0004464" y1="13.1998" x2="10.8005" y2="13.1998" gradientUnits="userSpaceOnUse">
<stop stop-color="#5496FF"/>
<stop offset="1" stop-color="#3264EE"/>
</linearGradient>
<linearGradient id="paint2_linear" x1="2.1606" y1="6.0001" x2="12.9606" y2="6.0001" gradientUnits="userSpaceOnUse">
<stop stop-color="#5496FF"/>
<stop offset="1" stop-color="#3264EF"/>
</linearGradient>
</defs>
</svg>
