<svg width="109" height="36" viewBox="0 0 109 36" fill="none" xmlns="http://www.w3.org/2000/svg">
<path d="M36 33.3324C35.9999 34.0399 35.7188 34.7183 35.2186 35.2186C34.7183 35.7188 34.0399 35.9999 33.3324 36H2.6676C1.96014 35.9999 1.28168 35.7188 0.781427 35.2186C0.281176 34.7183 9.54547e-05 34.0399 0 33.3324L0 2.6676C9.54547e-05 1.96014 0.281176 1.28168 0.781427 0.781427C1.28168 0.281176 1.96014 9.54547e-05 2.6676 0L33.3324 0C34.0399 9.54547e-05 34.7183 0.281176 35.2186 0.781427C35.7188 1.28168 35.9999 1.96014 36 2.6676V33.3324Z" fill="#232323"/>
<path fill-rule="evenodd" clip-rule="evenodd" d="M18.2813 19.4712L18.2286 27.559C18.2263 27.9246 18.1217 28.2822 17.9268 28.5914C17.7319 28.9007 17.4544 29.1492 17.1257 29.3091L13.3398 31.5001L13.4082 22.5001C13.4109 21.7576 18.2813 19.4712 18.2813 19.4712Z" fill="url(#paint0_linear)"/>
<path fill-rule="evenodd" clip-rule="evenodd" d="M23.2451 17.8565C23.2711 18.2211 23.1946 18.5857 23.0243 18.9091C22.854 19.2325 22.5965 19.5018 22.2811 19.6866L9.75 27L9.75495 22.6256C9.72901 22.261 9.80552 21.8964 9.97585 21.573C10.1462 21.2496 10.4035 20.9803 10.7188 20.7954L23.25 13.5L23.2451 17.8565Z" fill="url(#paint1_linear)"/>
<path fill-rule="evenodd" clip-rule="evenodd" d="M25.9452 8.85645C25.9713 9.22105 25.8948 9.58567 25.7245 9.90909C25.5541 10.2325 25.2967 10.5018 24.9813 10.6866L12.4502 18L12.4551 13.6256C12.4292 13.261 12.5057 12.8964 12.676 12.573C12.8464 12.2496 13.1037 11.9803 13.419 11.7954L25.9502 4.5L25.9452 8.85645Z" fill="url(#paint2_linear)"/>
<path d="M49.5835 14.4875V17.15H53.7007V18.525H49.5835V21.875H48V13.125H54.2245V14.4875H49.5835Z" fill="white"/>
<path d="M55.9995 13.125H57.5831V21.875H55.9995V13.125Z" fill="white"/>
<path d="M61.8627 14.5H59.0367V13.125H66.2723V14.5H63.4463V21.875H61.8627V14.5Z" fill="white"/>
<path d="M71.2124 13.125C71.9514 13.125 72.593 13.25 73.137 13.5C73.6893 13.75 74.1115 14.1083 74.4039 14.575C74.6962 15.0417 74.8424 15.5958 74.8424 16.2375C74.8424 16.8708 74.6962 17.425 74.4039 17.9C74.1115 18.3667 73.6893 18.725 73.137 18.975C72.593 19.225 71.9514 19.35 71.2124 19.35H69.2878V21.875H67.7043V13.125H71.2124ZM71.1394 17.975C71.8296 17.975 72.3534 17.825 72.7107 17.525C73.068 17.225 73.2467 16.7958 73.2467 16.2375C73.2467 15.6792 73.068 15.25 72.7107 14.95C72.3534 14.65 71.8296 14.5 71.1394 14.5H69.2878V17.975H71.1394Z" fill="white"/>
<path d="M76.6674 13.125H78.2509V20.5H82.7092V21.875H76.6674V13.125Z" fill="white"/>
<path d="M89.7927 19.85H85.5293L84.6888 21.875H83.0565L86.8936 13.125H88.4527L92.302 21.875H90.6453L89.7927 19.85ZM89.2689 18.575L87.661 14.75L86.0653 18.575H89.2689Z" fill="white"/>
<path d="M97.4577 22C96.5969 22 95.8173 21.8083 95.1189 21.425C94.4287 21.0333 93.8846 20.4958 93.4867 19.8125C93.0969 19.1292 92.902 18.3583 92.902 17.5C92.902 16.6417 93.1009 15.8708 93.4988 15.1875C93.8967 14.5042 94.4408 13.9708 95.1311 13.5875C95.8295 13.1958 96.6091 13 97.4699 13C98.1682 13 98.8057 13.125 99.3823 13.375C99.9589 13.625 100.446 13.9875 100.844 14.4625L99.8208 15.45C99.2036 14.7667 98.4443 14.425 97.5429 14.425C96.9583 14.425 96.4345 14.5583 95.9716 14.825C95.5087 15.0833 95.1473 15.4458 94.8875 15.9125C94.6276 16.3792 94.4977 16.9083 94.4977 17.5C94.4977 18.0917 94.6276 18.6208 94.8875 19.0875C95.1473 19.5542 95.5087 19.9208 95.9716 20.1875C96.4345 20.4458 96.9583 20.575 97.5429 20.575C98.4443 20.575 99.2036 20.2292 99.8208 19.5375L100.844 20.5375C100.446 21.0125 99.9548 21.375 99.3701 21.625C98.7935 21.875 98.1561 22 97.4577 22Z" fill="white"/>
<path d="M109 20.5125V21.875H102.605V13.125H108.829V14.4875H104.188V16.7625H108.306V18.1H104.188V20.5125H109Z" fill="white"/>
<defs>
<linearGradient id="paint0_linear" x1="17.7975" y1="28.9268" x2="13.746" y2="21.9093" gradientUnits="userSpaceOnUse">
<stop stop-color="#5496FF"/>
<stop offset="1" stop-color="#3264EF"/>
</linearGradient>
<linearGradient id="paint1_linear" x1="9.75" y1="20.25" x2="23.25" y2="20.25" gradientUnits="userSpaceOnUse">
<stop stop-color="#5496FF"/>
<stop offset="1" stop-color="#3264EE"/>
</linearGradient>
<linearGradient id="paint2_linear" x1="5142.46" y1="26136.1" x2="9192.46" y2="26136.1" gradientUnits="userSpaceOnUse">
<stop stop-color="#5496FF"/>
<stop offset="1" stop-color="#3264EF"/>
</linearGradient>
</defs>
</svg>
