<svg width="40" height="40" viewBox="0 0 40 40" fill="none" xmlns="http://www.w3.org/2000/svg">
<path d="M20 40C31.0457 40 40 31.0457 40 20C40 8.95431 31.0457 0 20 0C8.95431 0 0 8.95431 0 20C0 31.0457 8.95431 40 20 40Z" fill="#4D76A1"/>
<path fill-rule="evenodd" clip-rule="evenodd" d="M19.2433 28.7721H20.813C20.813 28.7721 21.2872 28.7201 21.5293 28.4591C21.7521 28.2195 21.745 27.7696 21.745 27.7696C21.745 27.7696 21.7143 25.6633 22.6919 25.3531C23.6556 25.0476 24.893 27.3888 26.2047 28.289C27.1965 28.9703 27.9502 28.821 27.9502 28.821L31.4573 28.7721C31.4573 28.7721 33.2919 28.6591 32.422 27.2166C32.3507 27.0986 31.9154 26.1496 29.8144 24.1994C27.6154 22.1583 27.9099 22.4885 30.5588 18.9579C32.1721 16.8077 32.817 15.495 32.6156 14.9328C32.4234 14.3973 31.2369 14.5388 31.2369 14.5388L27.2881 14.5634C27.2881 14.5634 26.9954 14.5235 26.7783 14.6533C26.5662 14.7805 26.4296 15.0772 26.4296 15.0772C26.4296 15.0772 25.8047 16.741 24.9711 18.1561C23.2128 21.1419 22.5097 21.2995 22.2224 21.1141C21.5539 20.682 21.7207 19.3782 21.7207 18.452C21.7207 15.5585 22.1596 14.352 20.8662 14.0397C20.4369 13.9359 20.121 13.8675 19.0233 13.8564C17.6143 13.8418 16.4218 13.8607 15.7465 14.1916C15.2973 14.4115 14.9508 14.9017 15.1619 14.9299C15.4228 14.9648 16.0139 15.0893 16.3273 15.516C16.732 16.0665 16.7177 17.3029 16.7177 17.3029C16.7177 17.3029 16.9502 20.7091 16.1747 21.1323C15.6424 21.4225 14.9123 20.8299 13.3447 18.1211C12.5414 16.7335 11.935 15.1998 11.935 15.1998C11.935 15.1998 11.8181 14.9132 11.6095 14.7599C11.3564 14.5741 11.0027 14.5149 11.0027 14.5149L7.25034 14.5395C7.25034 14.5395 6.68704 14.5552 6.48026 14.8001C6.2963 15.018 6.46565 15.4686 6.46565 15.4686C6.46565 15.4686 9.40336 22.3416 12.7297 25.8052C15.7797 28.9807 19.2433 28.7721 19.2433 28.7721Z" fill="white"/>
</svg>
