<svg width="98" height="390" viewBox="0 0 98 390" fill="none" xmlns="http://www.w3.org/2000/svg">
<path d="M95.0107 258.674C97.6482 271.233 96.8401 281.684 93.0348 290.463C89.2292 299.242 82.4034 306.4 72.9131 312.333C53.9076 324.214 24.3186 331.12 -12.7008 336.276C-38.0308 339.804 -66.7895 342.508 -97.9536 345.438C-112.32 346.789 -127.197 348.188 -142.485 349.737C-190.925 354.648 -243.461 361.071 -296.837 372.28C-403.481 394.675 -504.305 394.469 -581.097 376.052C-657.93 357.626 -710.524 321.024 -721.075 270.782C-731.626 220.539 -698.198 165.873 -635.268 118.096C-572.371 70.3448 -480.147 29.5984 -373.503 7.20312C-266.979 -15.167 -155.144 22.4606 -67.2568 78.3527C-23.3188 106.295 14.6137 138.79 42.8824 170.604C71.162 202.43 89.7302 233.528 95.0107 258.674Z" stroke="#505050"/>
</svg>
