<svg width="539" height="326" viewBox="0 0 539 326" fill="none" xmlns="http://www.w3.org/2000/svg">
<path d="M810.735 -99.8694C813.37 -87.3199 812.921 -70.9367 809.788 -52.1979C806.656 -33.4662 800.848 -12.4122 792.792 9.46406C776.681 53.2187 751.593 100.226 720.994 138.483C690.387 176.75 654.318 206.2 616.26 214.951C578.256 223.689 538.157 211.812 499.377 167.172C421.452 77.4698 311.381 76.4754 218.319 85.1903C203.482 86.5797 189.084 88.2149 175.317 89.7784C145.863 93.1234 119.296 96.1405 97.4968 95.7218C81.511 95.4147 68.167 93.258 58.1728 88.0698C48.2089 82.8973 41.5477 74.6989 38.9252 62.2109C28.3743 11.9683 61.8016 -42.6974 124.732 -90.4745C187.629 -138.226 279.853 -178.972 386.497 -201.368C493.141 -223.763 593.965 -223.557 670.757 -205.14C747.59 -186.713 800.184 -150.112 810.735 -99.8694Z" stroke="#5A5A5A"/>
</svg>
